<?xml version="1.0" standalone="no"?>
<!DOCTYPE svg PUBLIC "-//W3C//DTD SVG 20010904//EN"
 "http://www.w3.org/TR/2001/REC-SVG-20010904/DTD/svg10.dtd">
<svg version="1.0" xmlns="http://www.w3.org/2000/svg"
 width="500.000000pt" height="500.000000pt" viewBox="0 0 500.000000 500.000000"
 preserveAspectRatio="xMidYMid meet">
<metadata>
Created by potrace 1.11, written by Peter Selinger 2001-2013
</metadata>
<g transform="translate(0.000000,500.000000) scale(0.100000,-0.100000)"
fill="#000000" stroke="none">
<path d="M780 2506 l0 -1675 595 0 595 1 1 531 c0 293 0 558 -1 590 l-1 57 48
0 c26 1 323 3 658 5 336 2 626 6 645 8 19 3 62 8 95 12 452 49 755 230 921
550 43 83 87 217 99 305 4 25 9 59 12 75 6 38 5 243 -1 311 -37 375 -234 671
-528 791 -76 31 -176 60 -232 68 -23 3 -48 8 -56 10 -8 2 -46 7 -85 11 -38 3
-79 9 -90 12 -11 3 -617 7 -1347 9 l-1328 4 0 -1675z m2168 910 c75 -8 157
-37 193 -68 81 -72 119 -177 108 -294 -16 -168 -114 -254 -319 -279 -49 -6
-292 -8 -796 -6 l-162 1 1 325 0 324 41 3 c80 6 872 1 934 -6z"/>
</g>
</svg>
